<?xml version="1.0" encoding="UTF-8"?>
<!DOCTYPE svg PUBLIC "-//W3C//DTD SVG 1.1//EN" "http://www.w3.org/Graphics/SVG/1.1/DTD/svg11.dtd">
<!-- Creator: CorelDRAW X6 -->
<svg xmlns="http://www.w3.org/2000/svg" xml:space="preserve" width="61.7066mm" height="73.916mm" version="1.1" style="shape-rendering:geometricPrecision; text-rendering:geometricPrecision; image-rendering:optimizeQuality; fill-rule:evenodd; clip-rule:evenodd"
viewBox="0 0 6171 7392"
 xmlns:xlink="http://www.w3.org/1999/xlink">
 <defs>
  <style type="text/css">
   <![CDATA[
    .str0 {stroke:#2B2A29;stroke-width:50;stroke-linecap:round;stroke-linejoin:round}
    .fil0 {fill:none}
    .fil4 {fill:none;fill-rule:nonzero}
    .fil3 {fill:#009846}
    .fil2 {fill:#E31E24}
    .fil1 {fill:#FFED00}
    .fil5 {fill:#FFED00;fill-rule:nonzero}
   ]]>
  </style>
 </defs>
 <g id="Слой_x0020_1">
  <metadata id="CorelCorpID_0Corel-Layer"/>
  <g id="_346137152">
   <g>
    <path class="fil0 str0" d="M25 25l6121 0 0 3619c0,1676 -1393,3228 -3060,3723 -1683,-519 -3060,-2039 -3060,-3723l0 -3619z"/>
    <path id="1" class="fil1" d="M25 25l6121 0 0 3619c0,1676 -1393,3228 -3060,3723 -1683,-519 -3060,-2039 -3060,-3723l0 -3619z"/>
   </g>
   <path class="fil2" d="M113 130l5945 0 0 3515c0,1628 -1353,3135 -2973,3616 -1635,-504 -2973,-1981 -2973,-3616l0 -3515z"/>
   <path class="fil3" d="M5964 4390c-332,1326 -1510,2465 -2879,2871 -1382,-426 -2551,-1547 -2880,-2871l5759 0z"/>
   <g>
    <path class="fil0 str0" d="M4911 4597c-1,63 -6,125 -14,186l286 60 -127 373 -251 -79c-44,112 -100,219 -168,318l218 186 -268 283 -203 -175c-98,90 -207,171 -325,240l118 204 -380 194 -103 -234c-135,44 -277,75 -424,90l6 241 -417 0 0 -241c-143,-14 -280,-43 -411,-85l-81 207 -402 -164 104 -209 1 -2c-121,-70 -233,-153 -332,-246l-205 165 -268 -305 222 -153c-74,-110 -135,-228 -180,-352l-289 43 -82 -328 289 -65c-6,-50 -9,-100 -10,-151l406 0c12,712 653,1286 1441,1286 789,0 1430,-574 1441,-1286l406 0z"/>
    <path id="1" class="fil1" d="M4911 4597c-1,63 -6,125 -14,186l286 60 -127 373 -251 -79c-44,112 -100,219 -168,318l218 186 -268 283 -203 -175c-98,90 -207,171 -325,240l118 204 -380 194 -103 -234c-135,44 -277,75 -424,90l6 241 -417 0 0 -241c-143,-14 -280,-43 -411,-85l-81 207 -402 -164 104 -209 1 -2c-121,-70 -233,-153 -332,-246l-205 165 -268 -305 222 -153c-74,-110 -135,-228 -180,-352l-289 43 -82 -328 289 -65c-6,-50 -9,-100 -10,-151l406 0c12,712 653,1286 1441,1286 789,0 1430,-574 1441,-1286l406 0z"/>
   </g>
   <g>
    <polygon class="fil0 str0" points="2156,950 2479,950 2662,1192 1944,1192 "/>
    <polygon id="1" class="fil1" points="2156,950 2479,950 2662,1192 1944,1192 "/>
   </g>
   <g>
    <polygon class="fil0 str0" points="1918,1263 2706,1263 2483,1899 2133,1899 "/>
    <polygon id="1" class="fil1" points="1918,1263 2706,1263 2483,1899 2133,1899 "/>
   </g>
   <g>
    <path class="fil0 str0" d="M2059 1966l476 0c0,165 0,281 0,446 -159,55 -317,55 -476,0l0 -446z"/>
    <path id="1" class="fil1" d="M2059 1966l476 0c0,165 0,281 0,446 -159,55 -317,55 -476,0l0 -446z"/>
   </g>
   <g>
    <path class="fil0 str0" d="M1903 2349c260,135 516,153 766,0l0 807 -766 0c0,-269 0,-538 0,-807z"/>
    <path id="1" class="fil1" d="M1903 2349c260,135 516,153 766,0l0 807 -766 0c0,-269 0,-538 0,-807z"/>
   </g>
   <g>
    <polygon class="fil0 str0" points="1977,1970 1583,1970 1583,2167 1977,2167 "/>
    <polygon id="1" class="fil1" points="1977,1970 1583,1970 1583,2167 1977,2167 "/>
   </g>
   <g>
    <path class="fil0 str0" d="M1482 1888l41 0c25,0 45,20 45,45l0 268c0,25 -20,45 -45,45l-41 0c-25,0 -45,-20 -45,-45l0 -268c0,-25 20,-45 45,-45z"/>
    <path id="1" class="fil1" d="M1482 1888l41 0c25,0 45,20 45,45l0 268c0,25 -20,45 -45,45l-41 0c-25,0 -45,-20 -45,-45l0 -268c0,-25 20,-45 45,-45z"/>
   </g>
   <g>
    <polygon class="fil0 str0" points="1694,2349 1694,3145 1374,2743 "/>
    <polygon id="1" class="fil1" points="1694,2349 1694,3145 1374,2743 "/>
   </g>
   <g>
    <polygon class="fil0 str0" points="3071,1441 2840,1654 3275,1654 "/>
    <polygon id="1" class="fil1" points="3071,1441 2840,1654 3275,1654 "/>
   </g>
   <g>
    <path class="fil0 str0" d="M2859 1728l391 0c0,216 0,432 0,647 -130,89 -260,89 -391,0l0 -647z"/>
    <path id="1" class="fil1" d="M2859 1728l391 0c0,216 0,432 0,647 -130,89 -260,89 -391,0l0 -647z"/>
   </g>
   <g>
    <path class="fil0 str0" d="M2838 3157l432 0c0,-262 0,-525 0,-787 -144,117 -288,117 -432,0l0 787z"/>
    <path id="1" class="fil1" d="M2838 3157l432 0c0,-262 0,-525 0,-787 -144,117 -288,117 -432,0l0 787z"/>
   </g>
   <g>
    <polygon class="fil0 str0" points="3655,1678 3425,1890 3860,1890 "/>
    <polygon id="1" class="fil1" points="3655,1678 3425,1890 3860,1890 "/>
   </g>
   <g>
    <path class="fil0 str0" d="M3443 1972l391 0c0,216 0,187 0,403 -130,89 -260,89 -391,0l0 -403z"/>
    <path id="1" class="fil1" d="M3443 1972l391 0c0,216 0,187 0,403 -130,89 -260,89 -391,0l0 -403z"/>
   </g>
   <g>
    <path class="fil0 str0" d="M3423 3157l432 0c0,-262 0,-525 0,-787 -144,117 -288,117 -432,0l0 787z"/>
    <path id="1" class="fil1" d="M3423 3157l432 0c0,-262 0,-525 0,-787 -144,117 -288,117 -432,0l0 787z"/>
   </g>
   <g>
    <path class="fil0 str0" d="M2975 1324l180 0c29,0 53,24 53,53l-139 53 -148 -53c0,-29 24,-53 53,-53z"/>
    <path id="1" class="fil1" d="M2975 1324l180 0c29,0 53,24 53,53l-139 53 -148 -53c0,-29 24,-53 53,-53z"/>
   </g>
   <g>
    <polygon class="fil0 str0" points="1046,3214 5076,3214 5076,3299 1046,3299 "/>
    <polygon id="1" class="fil1" points="1046,3214 5076,3214 5076,3299 1046,3299 "/>
   </g>
   <g>
    <polygon class="fil0 str0" points="1027,3088 1477,3088 1477,3184 1027,3184 "/>
    <polygon id="1" class="fil1" points="1027,3088 1477,3088 1477,3184 1027,3184 "/>
   </g>
   <g>
    <polygon class="fil0 str0" points="465,3054 564,3054 564,3654 465,3654 "/>
    <polygon id="1" class="fil1" points="465,3054 564,3054 564,3654 465,3654 "/>
   </g>
   <g>
    <polygon class="fil0 str0" points="5613,3054 5514,3054 5514,3654 5613,3654 "/>
    <polygon id="1" class="fil1" points="5613,3054 5514,3054 5514,3654 5613,3654 "/>
   </g>
   <g>
    <polygon class="fil0 str0" points="633,3050 633,3600 923,3329 "/>
    <polygon id="1" class="fil1" points="633,3050 633,3600 923,3329 "/>
   </g>
   <g>
    <polygon class="fil0 str0" points="5445,3050 5445,3600 5154,3329 "/>
    <polygon id="1" class="fil1" points="5445,3050 5445,3600 5154,3329 "/>
   </g>
   <g>
    <path class="fil0 str0" d="M1019 3360l4022 0 0 88 -248 222 3 130c-1157,0 -2261,0 -3426,0 -109,0 -357,-212 -351,-363l0 -76z"/>
    <path id="1" class="fil1" d="M1019 3360l4022 0 0 88 -248 222 3 130c-1157,0 -2261,0 -3426,0 -109,0 -357,-212 -351,-363l0 -76z"/>
   </g>
   <g>
    <polygon class="fil0 str0" points="1367,3799 1088,4021 1363,4021 1882,3807 "/>
    <polygon id="1" class="fil1" points="1367,3799 1088,4021 1363,4021 1882,3807 "/>
   </g>
   <g>
    <path class="fil0 str0" d="M2493 3363c215,0 390,162 390,363 0,200 -174,363 -390,363 -215,0 -390,-162 -390,-363 0,-200 174,-363 390,-363z"/>
    <path id="1" class="fil1" d="M2493 3363c215,0 390,162 390,363 0,200 -174,363 -390,363 -215,0 -390,-162 -390,-363 0,-200 174,-363 390,-363z"/>
   </g>
   <g>
    <path class="fil0 str0" d="M3372 3363c215,0 390,162 390,363 0,200 -174,363 -390,363 -215,0 -390,-162 -390,-363 0,-200 174,-363 390,-363z"/>
    <path id="1" class="fil1" d="M3372 3363c215,0 390,162 390,363 0,200 -174,363 -390,363 -215,0 -390,-162 -390,-363 0,-200 174,-363 390,-363z"/>
   </g>
   <g>
    <path class="fil0 str0" d="M4232 3363c215,0 390,162 390,363 0,200 -174,363 -390,363 -215,0 -390,-162 -390,-363 0,-200 174,-363 390,-363z"/>
    <path id="1" class="fil1" d="M4232 3363c215,0 390,162 390,363 0,200 -174,363 -390,363 -215,0 -390,-162 -390,-363 0,-200 174,-363 390,-363z"/>
   </g>
   <g>
    <path class="fil0 str0" d="M2406 3581l966 0c23,0 42,19 42,42l0 0c0,23 -19,42 -42,42l-966 0c-23,0 -42,-19 -42,-42l0 0c0,-23 19,-42 42,-42z"/>
    <path id="1" class="fil1" d="M2406 3581l966 0c23,0 42,19 42,42l0 0c0,23 -19,42 -42,42l-966 0c-23,0 -42,-19 -42,-42l0 0c0,-23 19,-42 42,-42z"/>
   </g>
   <g>
    <path class="fil0 str0" d="M3410 3765l966 0c23,0 42,19 42,42l0 0c0,23 -19,42 -42,42l-966 0c-23,0 -42,-19 -42,-42l0 0c0,-23 19,-42 42,-42z"/>
    <path id="1" class="fil1" d="M3410 3765l966 0c23,0 42,19 42,42l0 0c0,23 -19,42 -42,42l-966 0c-23,0 -42,-19 -42,-42l0 0c0,-23 19,-42 42,-42z"/>
   </g>
   <g>
    <polygon class="fil0 str0" points="3987,1797 5534,1797 5534,1908 3987,1908 "/>
    <polygon id="1" class="fil1" points="3987,1797 5534,1797 5534,1908 3987,1908 "/>
   </g>
   <g>
    <path class="fil0 str0" d="M3987 1935l1402 0 1 62c-65,0 -130,0 -195,0 -156,18 -238,77 -292,151l-2 440 181 156 -2 309 -34 10 0 96 -1058 0 0 -1222zm411 162l199 0c36,0 65,29 65,65l0 455c0,36 -29,65 -65,65l-199 0c-36,0 -65,-29 -65,-65l0 -455c0,-36 29,-65 65,-65z"/>
    <path id="1" class="fil1" d="M3987 1935l1402 0 1 62c-65,0 -130,0 -195,0 -156,18 -238,77 -292,151l-2 440 181 156 -2 309 -34 10 0 96 -1058 0 0 -1222zm411 162l199 0c36,0 65,29 65,65l0 455c0,36 -29,65 -65,65l-199 0c-36,0 -65,-29 -65,-65l0 -455c0,-36 29,-65 65,-65z"/>
   </g>
   <g>
    <path class="fil4 str0" d="M444 435l88 0c81,0 141,14 180,43 39,29 59,73 59,133 0,49 -18,87 -54,113 -36,26 -87,39 -154,39l-283 0 0 -533 449 0 0 108 -285 0 0 98zm0 213l84 0c52,0 77,-19 77,-56 0,-33 -26,-49 -77,-49l-84 0 0 105zm742 27l-187 0 -27 88 -168 0 201 -533 180 0 200 533 -173 0 -27 -88zm-35 -115l-58 -192 -58 192 117 0zm285 -330l274 0c60,0 104,14 134,43 30,28 45,69 45,121 0,54 -16,96 -49,126 -32,30 -82,46 -149,46l-90 0 0 197 -165 0 0 -533zm165 228l41 0c32,0 55,-6 67,-17 13,-11 19,-25 19,-42 0,-17 -6,-31 -17,-43 -11,-12 -32,-18 -63,-18l-47 0 0 119zm702 218l-187 0 -27 88 -168 0 201 -533 180 0 200 533 -173 0 -27 -88zm-35 -115l-58 -192 -58 192 117 0zm287 -330l165 0 0 186 180 0 0 -186 165 0 0 533 -165 0 0 -216 -180 0 0 216 -165 0 0 -533zm948 446l-187 0 -27 88 -168 0 201 -533 180 0 200 533 -173 0 -27 -88zm-35 -115l-58 -192 -58 192 117 0zm287 -330l309 0c51,0 91,13 118,38 28,25 41,57 41,95 0,32 -10,59 -30,81 -13,15 -32,27 -57,36 38,9 66,25 85,47 18,22 27,51 27,85 0,28 -6,53 -19,75 -13,22 -31,39 -53,52 -14,8 -35,14 -63,17 -37,5 -62,7 -74,7l-285 0 0 -533zm166 209l72 0c26,0 44,-4 54,-13 10,-9 15,-22 15,-38 0,-16 -5,-28 -15,-36 -10,-9 -28,-13 -53,-13l-73 0 0 101zm0 209l84 0c28,0 48,-5 60,-15 12,-10 18,-23 18,-40 0,-16 -6,-28 -17,-38 -12,-10 -32,-14 -61,-14l-84 0 0 108zm1193 115l-165 0 0 -198c-50,28 -98,42 -144,42 -54,0 -99,-16 -134,-48 -35,-32 -53,-76 -53,-132l0 -196 165 0 0 164c0,26 6,46 19,60 12,14 30,21 54,21 43,0 75,-13 94,-39l0 -206 165 0 0 533zm274 -328l88 0c81,0 141,14 180,43 39,29 59,73 59,133 0,49 -18,87 -54,113 -36,26 -87,39 -154,39l-283 0 0 -533 165 0 0 206zm0 213l84 0c52,0 77,-19 77,-56 0,-33 -26,-49 -77,-49l-84 0 0 105zm367 -419l165 0 0 533 -165 0 0 -533zm-1414 0l165 0 0 533 -165 0 0 -533z"/>
    <path id="1" class="fil5" d="M444 435l88 0c81,0 141,14 180,43 39,29 59,73 59,133 0,49 -18,87 -54,113 -36,26 -87,39 -154,39l-283 0 0 -533 449 0 0 108 -285 0 0 98zm0 213l84 0c52,0 77,-19 77,-56 0,-33 -26,-49 -77,-49l-84 0 0 105zm742 27l-187 0 -27 88 -168 0 201 -533 180 0 200 533 -173 0 -27 -88zm-35 -115l-58 -192 -58 192 117 0zm285 -330l274 0c60,0 104,14 134,43 30,28 45,69 45,121 0,54 -16,96 -49,126 -32,30 -82,46 -149,46l-90 0 0 197 -165 0 0 -533zm165 228l41 0c32,0 55,-6 67,-17 13,-11 19,-25 19,-42 0,-17 -6,-31 -17,-43 -11,-12 -32,-18 -63,-18l-47 0 0 119zm702 218l-187 0 -27 88 -168 0 201 -533 180 0 200 533 -173 0 -27 -88zm-35 -115l-58 -192 -58 192 117 0zm287 -330l165 0 0 186 180 0 0 -186 165 0 0 533 -165 0 0 -216 -180 0 0 216 -165 0 0 -533zm948 446l-187 0 -27 88 -168 0 201 -533 180 0 200 533 -173 0 -27 -88zm-35 -115l-58 -192 -58 192 117 0zm287 -330l309 0c51,0 91,13 118,38 28,25 41,57 41,95 0,32 -10,59 -30,81 -13,15 -32,27 -57,36 38,9 66,25 85,47 18,22 27,51 27,85 0,28 -6,53 -19,75 -13,22 -31,39 -53,52 -14,8 -35,14 -63,17 -37,5 -62,7 -74,7l-285 0 0 -533zm166 209l72 0c26,0 44,-4 54,-13 10,-9 15,-22 15,-38 0,-16 -5,-28 -15,-36 -10,-9 -28,-13 -53,-13l-73 0 0 101zm0 209l84 0c28,0 48,-5 60,-15 12,-10 18,-23 18,-40 0,-16 -6,-28 -17,-38 -12,-10 -32,-14 -61,-14l-84 0 0 108zm1193 115l-165 0 0 -198c-50,28 -98,42 -144,42 -54,0 -99,-16 -134,-48 -35,-32 -53,-76 -53,-132l0 -196 165 0 0 164c0,26 6,46 19,60 12,14 30,21 54,21 43,0 75,-13 94,-39l0 -206 165 0 0 533zm274 -328l88 0c81,0 141,14 180,43 39,29 59,73 59,133 0,49 -18,87 -54,113 -36,26 -87,39 -154,39l-283 0 0 -533 165 0 0 206zm0 213l84 0c52,0 77,-19 77,-56 0,-33 -26,-49 -77,-49l-84 0 0 105zm367 -419l165 0 0 533 -165 0 0 -533zm-1414 0l165 0 0 533 -165 0 0 -533z"/>
   </g>
  </g>
 </g>
</svg>
