<?xml version="1.0" encoding="UTF-8"?>
<!DOCTYPE svg PUBLIC "-//W3C//DTD SVG 1.1//EN" "http://www.w3.org/Graphics/SVG/1.1/DTD/svg11.dtd">
<!-- Creator: CorelDRAW X6 -->
<svg xmlns="http://www.w3.org/2000/svg" xml:space="preserve" width="70.0759mm" height="92.6275mm" version="1.1" style="shape-rendering:geometricPrecision; text-rendering:geometricPrecision; image-rendering:optimizeQuality; fill-rule:evenodd; clip-rule:evenodd"
viewBox="0 0 7008 9263"
 xmlns:xlink="http://www.w3.org/1999/xlink">
 <defs>
  <style type="text/css">
   <![CDATA[
    .str0 {stroke:#2B2A29;stroke-width:7.61999;stroke-linecap:round;stroke-linejoin:round}
    .str2 {stroke:#2B2A29;stroke-width:17.64;stroke-linecap:round;stroke-linejoin:round}
    .str5 {stroke:#2B2A29;stroke-width:26.46;stroke-linecap:round;stroke-linejoin:round}
    .str3 {stroke:#2B2A29;stroke-width:35.2799;stroke-linecap:round;stroke-linejoin:round}
    .str1 {stroke:#2B2A29;stroke-width:52.9199;stroke-linecap:round;stroke-linejoin:round}
    .str4 {stroke:#2B2A29;stroke-width:53.0799;stroke-linecap:round;stroke-linejoin:round}
    .fil2 {fill:none}
    .fil3 {fill:#2B2A29}
    .fil0 {fill:#E31E24}
    .fil1 {fill:#EBECEC}
    .fil4 {fill:#2B2A29;fill-rule:nonzero}
   ]]>
  </style>
 </defs>
 <g id="Слой_x0020_1">
  <metadata id="CorelCorpID_0Corel-Layer"/>
  <g id="_409463464">
   <path class="fil0 str0" d="M3498 9259c-1344,-550 -3494,-1696 -3494,-4074 0,-1524 0,-3538 0,-5181l7000 5c-10,1656 -9,3642 -12,5172 12,2497 -1988,3428 -3493,4076l-1 2z"/>
   <polygon class="fil1 str1" points="539,6280 1004,4222 1324,4222 1391,4395 1509,4367 1543,4261 1610,2393 1532,2398 1453,2696 1077,2707 1038,2640 668,1024 752,654 2182,1074 2205,1473 2081,1534 2087,1613 4797,1607 4791,1518 4628,1439 4656,1086 6149,626 6267,996 5907,2668 5857,2707 5515,2746 5459,2712 5386,2398 5268,2376 5358,4367 5487,4401 5548,4222 5930,4283 6396,6292 4701,5781 4673,5725 4550,5366 2323,5400 2222,5753 "/>
   <polyline class="fil2 str1" points="614,5947 2078,5490 2222,5753 "/>
   <polyline class="fil2 str1" points="2323,5400 2147,5120 2078,5490 2092,5515 "/>
   <polyline class="fil2 str1" points="3051,5389 3051,5001 2023,5006 2009,5055 2147,5120 "/>
   <polyline class="fil2 str1" points="3752,5378 3742,4621 3125,4621 3137,5387 "/>
   <polyline class="fil2" points="3851,5377 3836,4428 3051,4428 3051,5001 3057,5389 "/>
   <rect class="fil3 str2" x="3219" y="4715" width="108.68" height="74.0999"/>
   <rect class="fil3 str2" x="3384" y="4711" width="108.68" height="74.0999"/>
   <rect class="fil3 str2" x="3550" y="4711" width="108.68" height="74.0999"/>
   <polygon class="fil2 str2" points="3135,4517 3243,4517 3243,4579 3135,4579 "/>
   <polygon class="fil3 str2" points="3644,4519 3753,4519 3753,4580 3644,4580 "/>
   <polygon class="fil2 str2" points="3135,4517 3243,4517 3243,4579 3135,4579 "/>
   <polygon class="fil3 str2" points="3135,4517 3243,4517 3243,4579 3135,4579 "/>
   <ellipse class="fil3 str3" cx="3424" cy="4195" rx="70" ry="72"/>
   <rect class="fil2 str1" x="3220" y="3972" width="401" height="456"/>
   <rect class="fil2 str1" x="3148" y="3884" width="533" height="544"/>
   <rect class="fil3 str2" x="3329" y="3330" width="176" height="176"/>
   <g>
    <path class="fil3" d="M3417 3462c142,0 258,171 258,382 0,14 -1,28 -2,41l-513 0c-1,-14 -2,-27 -2,-41 0,-211 116,-382 258,-382z"/>
    <path id="1" class="fil4" d="M3684 3843l-18 0 0 0 0 -19 -1 -19 -2 -19 -2 -18 -3 -18 -3 -18 -4 -17 -5 -17 -5 -17 -6 -16 -6 -16 -7 -15 -7 -15 -7 -14 -8 -14 -8 -13 -9 -12 -9 -12 -9 -11 -10 -10 -10 -10 -10 -9 -11 -8 -11 -7 -11 -7 -11 -6 -12 -5 -12 -4 -12 -3 -12 -2 -12 -1 -13 0 0 -18 14 1 14 2 14 3 13 4 13 4 13 5 12 6 12 7 12 8 12 9 11 9 11 10 10 11 10 12 10 12 9 13 9 14 8 14 8 15 7 15 7 16 6 16 6 17 5 17 5 18 4 18 4 18 3 19 2 19 2 19 1 20 0 20 0 0zm-10 50l0 -18 -9 8 0 -1 0 -1 0 -1 0 -1 0 -1 0 -1 0 -1 0 -1 0 -1 0 -1 0 -1 0 -1 0 -1 0 -1 0 -1 0 -1 0 -1 0 -1 0 -1 0 -1 0 -1 0 -1 0 -1 0 -1 0 -1 0 -1 0 -1 0 -1 0 -1 0 -1 0 -1 0 -1 18 0 0 1 0 1 0 1 0 1 0 1 0 1 0 1 0 1 0 1 0 1 0 1 0 1 0 1 0 1 0 1 0 1 0 1 0 1 0 1 0 1 0 1 0 1 0 1 0 1 0 1 0 1 0 1 0 1 0 1 0 1 0 1 0 1 -9 8zm-9 -9l18 1 0 0 0 0 0 0 0 0 0 0 0 0 0 0 0 0 0 0 0 0 0 0 0 0 0 0 0 0 0 0 0 0 0 0 0 0 0 0 0 0 0 0 0 0 0 0 0 0 0 0 0 0 0 0 0 0 0 0 0 0 0 0 0 0 0 0 0 0 0 0 0 0 0 0 0 0 0 0 0 0 0 0 0 0 0 0 0 0 0 0 0 0 0 0 0 0 0 0 0 0 0 0 0 0 0 0 0 0 0 0 0 0 0 0 0 0 0 0 0 0 0 0 0 0 0 0 0 0zm-504 -8l513 0 0 18 -513 0 -9 -8 9 -9zm0 0l0 18 0 0 0 0 0 0 0 0 0 0 0 0 0 0 0 0 0 0 0 0 0 0 0 0 0 0 0 0 0 0 0 0 0 0 0 0 0 0 0 0 0 0 0 0 0 0 0 0 0 0 0 0 0 0 0 0 0 0 0 0 0 0 0 0 0 0 0 0 0 0 0 0 0 0 0 0 0 0 0 0 0 0 0 0 0 0 0 0 0 0 0 0 0 0 0 0 0 0 0 0 0 0 0 0 0 0 0 0 0 0 0 0 0 0 0 0 0 0 0 0 0 0 0 0 0 0 0 0zm-10 -32l18 0 0 0 0 1 0 1 0 1 0 1 0 1 0 1 0 1 0 1 0 1 0 1 0 1 0 1 0 1 0 1 0 1 0 1 0 1 0 1 0 1 0 1 0 1 0 1 0 1 0 1 0 1 0 1 0 1 0 1 0 1 0 1 0 1 0 1 -18 1 0 -1 0 -1 0 -1 0 -1 0 -1 0 -1 0 -1 0 -1 0 -1 0 -1 0 -1 0 -1 0 -1 0 -1 0 -1 0 -1 0 -1 0 -1 0 -1 0 -1 0 -1 0 -1 0 -1 0 -1 0 -1 0 -1 0 -1 0 -1 0 -1 0 -1 0 -1 0 -1 0 0zm267 -390l0 18 0 0 -13 0 -12 1 -12 2 -12 3 -12 4 -12 5 -11 6 -11 7 -11 7 -11 8 -10 9 -10 10 -10 10 -9 11 -9 12 -9 12 -8 13 -8 14 -7 14 -7 15 -7 15 -6 16 -6 16 -5 17 -5 17 -4 17 -3 18 -3 18 -2 18 -2 19 -1 19 0 19 -18 0 0 -20 1 -20 2 -19 2 -19 3 -19 4 -18 4 -18 5 -18 5 -17 6 -17 6 -16 7 -16 7 -15 8 -15 8 -14 9 -14 9 -13 10 -12 10 -12 10 -11 11 -10 11 -9 12 -9 12 -8 12 -7 12 -6 13 -5 13 -4 13 -4 14 -3 14 -2 14 -1 0 0z"/>
   </g>
   <path class="fil3 str2" d="M3417 3209c43,0 79,40 79,89 0,3 0,6 0,10l-157 0c0,-3 0,-6 0,-10 0,-49 35,-89 79,-89z"/>
   <polyline class="fil2 str1" points="3845,5005 4891,4995 4914,5045 4735,5114 4537,5366 "/>
   <polyline class="fil2 str1" points="4673,5725 4798,5497 4735,5114 "/>
   <polyline class="fil2 str1" points="6315,5946 6250,5941 4798,5497 "/>
   <polyline class="fil2 str1" points="3843,4843 4932,4845 5058,5089 4871,5157 4902,5398 6116,5769 5820,4421 5635,4368 5562,4548 5236,4474 5137,2058 5506,2008 5552,2185 5691,2165 6028,797 4750,1198 4740,1396 4922,1472 4871,1695 2024,1708 1928,1480 2090,1391 2087,1208 878,843 1166,2185 1293,2205 1359,2015 1736,2086 1640,4462 1293,4586 1232,4383 1095,4386 797,5728 1981,5360 2014,5170 1842,5099 1936,4853 3051,4853 "/>
   <polyline class="fil2 str1" points="1614,2363 1617,2175 1432,2155 1388,2377 1453,2696 "/>
   <polyline class="fil2 str1" points="1029,2600 1110,2333 1388,2377 "/>
   <line class="fil2 str1" x1="748" y1="670" x2="1110" y2= "2333" />
   <polyline class="fil2 str1" points="6156,648 5767,2287 5882,2687 "/>
   <polyline class="fil2 str1" points="5454,2621 5493,2331 5767,2287 "/>
   <polyline class="fil2 str1" points="5281,2378 5263,2143 5418,2148 5493,2331 "/>
   <polygon class="fil3 str2" points="2640,2601 2372,2139 2584,1821 4319,1821 4550,2183 4306,2607 4076,2364 2834,2364 "/>
   <polyline class="fil2 str1" points="2372,2139 2222,2607 2591,2601 "/>
   <polyline class="fil2 str1" points="4550,2183 4687,2614 4306,2607 "/>
   <rect class="fil2 str1" x="2222" y="2607" width="356" height="643"/>
   <rect class="fil2 str1" x="2147" y="2601" width="493" height="724"/>
   <rect class="fil2 str1" x="4306" y="2607" width="368" height="618"/>
   <polygon class="fil2 str4" points="4244,3319 4749,3319 4749,2614 4244,2614 "/>
   <g id="_409456408">
    <rect class="fil2 str5" x="2865" y="2407" width="175" height="218"/>
    <rect class="fil3 str5" x="2932" y="2524" width="73.4899" height="101.87"/>
   </g>
   <polyline class="fil2 str1" points="2640,3325 2827,2990 4081,2984 4244,3319 "/>
   <line class="fil2 str1" x1="2834" y1="2364" x2="2827" y2= "2990" />
   <line class="fil2 str2" x1="4076" y1="2364" x2="4081" y2= "2984" />
   <polyline class="fil2 str1" points="3051,5001 3051,4428 3836,4428 3837,5377 "/>
   <polygon class="fil3 str2" points="3308,4513 3416,4513 3416,4575 3308,4575 "/>
   <polygon class="fil3 str2" points="3475,4517 3584,4517 3584,4579 3475,4579 "/>
   <polygon class="fil3 str2" points="3148,3884 3103,3814 3162,3790 3685,3797 3733,3814 3681,3884 "/>
   <rect class="fil3 str2" x="3300" y="3304" width="227.7" height="31.04"/>
   <rect class="fil3 str2" x="3403" y="3112" width="24.37" height="101.79"/>
   <g id="_409454152">
    <rect class="fil2 str5" x="2880" y="2697" width="175" height="218"/>
    <rect class="fil3 str5" x="2947" y="2813" width="73.4899" height="101.87"/>
   </g>
   <g id="_409466344">
    <rect class="fil2 str5" x="3095" y="2405" width="175" height="218"/>
    <rect class="fil3 str5" x="3162" y="2521" width="73.4899" height="101.87"/>
   </g>
   <g id="_409465624">
    <rect class="fil2 str5" x="3339" y="2405" width="175" height="218"/>
    <rect class="fil3 str5" x="3406" y="2521" width="73.4899" height="101.87"/>
   </g>
   <g id="_409450264">
    <rect class="fil2 str5" x="3588" y="2402" width="175" height="218"/>
    <rect class="fil3 str5" x="3655" y="2518" width="73.4899" height="101.87"/>
   </g>
   <g id="_409444456">
    <rect class="fil2 str5" x="3857" y="2405" width="175" height="218"/>
    <rect class="fil3 str5" x="3923" y="2521" width="73.4899" height="101.87"/>
   </g>
   <g id="_409456192">
    <rect class="fil2 str5" x="3098" y="2692" width="175" height="218"/>
    <rect class="fil3 str5" x="3164" y="2809" width="73.4899" height="101.87"/>
   </g>
   <g id="_409453768">
    <rect class="fil2 str5" x="3342" y="2692" width="175" height="218"/>
    <rect class="fil3 str5" x="3408" y="2809" width="73.4899" height="101.87"/>
   </g>
   <g id="_409463512">
    <rect class="fil2 str5" x="3591" y="2690" width="175" height="218"/>
    <rect class="fil3 str5" x="3658" y="2806" width="73.4899" height="101.87"/>
   </g>
   <g id="_409462864">
    <rect class="fil2 str5" x="3860" y="2692" width="175" height="218"/>
    <rect class="fil3 str5" x="3926" y="2809" width="73.4899" height="101.87"/>
   </g>
   <polygon class="fil3 str2" points="4687,2614 4746,2497 4749,2614 "/>
   <polygon class="fil3 str2" points="2147,2601 2189,2476 2222,2607 "/>
   <path class="fil3 str2" d="M3324 5379l-5 -318c66,-115 140,-140 222,0l8 318 -225 0z"/>
  </g>
 </g>
</svg>
