<?xml version="1.0" encoding="UTF-8" standalone="no"?>
<!-- Creator: CorelDRAW -->

<svg
   xmlns:dc="http://purl.org/dc/elements/1.1/"
   xmlns:cc="http://creativecommons.org/ns#"
   xmlns:rdf="http://www.w3.org/1999/02/22-rdf-syntax-ns#"
   xmlns:svg="http://www.w3.org/2000/svg"
   xmlns="http://www.w3.org/2000/svg"
   xmlns:sodipodi="http://sodipodi.sourceforge.net/DTD/sodipodi-0.dtd"
   xmlns:inkscape="http://www.inkscape.org/namespaces/inkscape"
   xml:space="preserve"
   width="300.00018"
   height="371.99985"
   style="fill-rule:evenodd"
   viewBox="0 0 84.666719 104.98663"
   id="svg2"
   version="1.1"
   inkscape:version="0.48.1 "
   sodipodi:docname="каменец_.svg"><metadata
   id="metadata26"><rdf:RDF><cc:Work
       rdf:about=""><dc:format>image/svg+xml</dc:format><dc:type
         rdf:resource="http://purl.org/dc/dcmitype/StillImage" /></cc:Work></rdf:RDF></metadata><sodipodi:namedview
   pagecolor="#ffffff"
   bordercolor="#666666"
   borderopacity="1"
   objecttolerance="10"
   gridtolerance="10"
   guidetolerance="10"
   inkscape:pageopacity="0"
   inkscape:pageshadow="2"
   inkscape:window-width="1280"
   inkscape:window-height="750"
   id="namedview24"
   showgrid="false"
   fit-margin-top="0"
   fit-margin-left="0"
   fit-margin-right="0"
   fit-margin-bottom="0"
   inkscape:zoom="1.42742"
   inkscape:cx="150.00009"
   inkscape:cy="185.99992"
   inkscape:window-x="-8"
   inkscape:window-y="-8"
   inkscape:window-maximized="1"
   inkscape:current-layer="svg2" />
 <defs
   id="defs4"><style
     type="text/css"
     id="style6">
   
    .str0 {stroke:black;stroke-width:0.25}
    .fil4 {fill:black}
    .fil0 {fill:white}
    .fil2 {fill:black;fill-rule:nonzero}
    .fil3 {fill:#DF212C;fill-rule:nonzero}
    .fil1 {fill:#E5E5E5;fill-rule:nonzero}
    .fil5 {fill:white;fill-rule:nonzero}
   
  </style><style
     id="style3065"
     type="text/css">
   
    .str0 {stroke:#FF6600;stroke-width:0.7056}
    .fil1 {fill:none}
    .fil0 {fill:#A90000}
   
  </style></defs>
 <path
   style="fill:#a90000"
   inkscape:connector-curvature="0"
   class="fil0"
   d="m 62.58336,50.243411 c 0.8283,0 1.5,0.6717 1.5,1.5 l 0,1.4998 c 0,0.8283 -0.6717,1.5 -1.5,1.5 l -1.5,0 0,-4.4998 1.5,0 z m 0,5.9998 c 1.6566,0 3,-1.3434 3,-3 l 0,-1.4998 c 0,-1.6566 -1.3434,-3 -3,-3 l -3,0 0,7.4998 3,0 z m -6,-7.4998 1.5,0 0,7.4998 -1.5,0 0,-7.4998 z m -3,0 1.5,0 0,7.4998 -1.5,0 -3,-4.7086 0,4.7086 -1.5,0 0,-7.4998 1.5,0 3,4.7086 0,-4.7086 z m -22.5,10e-5 4.5,0 0,1.5 -3,0 0,1.4999 3,0 0,1.5 -3,0 0,1.4999 3,0 0,1.5 -4.5,0 0,-7.4998 z m -6,-2e-4 1.5,0 0,6 3,0 0,1.5 -4.5,0 0,-7.5 z m 15.7504,6 1.4996,0 c 1.2424,0 2.25,-1.0076 2.25,-2.25 0,-1.2424 -1.0263,-2.2457 -2.25,-2.25 l -1.4996,0 0,1.5 1.4996,0 c 0.4141,0 0.75,0.3359 0.75,0.75 0,0.4141 -0.3359,0.75 -0.75,0.75 l -1.4996,0 0,1.5 z m 1.4996,-7.5 c 2.899,0 5.25,2.351 5.25,5.25 0,2.899 -2.351,5.25 -5.25,5.25 -2.899,0 -5.25,-2.351 -5.25,-5.25 0,-2.899 2.351,-5.25 5.25,-5.25 z m 0,1.5 c 2.0707,0 3.75,1.6793 3.75,3.75 0,2.0707 -1.6793,3.75 -3.75,3.75 -2.0707,0 -3.75,-1.6793 -3.75,-3.75 0,-2.0707 1.6793,-3.75 3.75,-3.75 z"
   id="path3069" /><g
   id="Слой_x0020_1"
   transform="matrix(1.8288908,0,0,1.8292751,-149.70054,-219.77133)">
  <metadata
   id="CorelCorpID_0Corel-Layer" />
  <path
   class="fil0 str0"
   d="m 128.022,125.437 c -6.979,-3.3138 -14.7836,-5.1708 -23.0218,-5.1708 -8.2383,0 -16.0428,1.8569 -23.0218,5.1708 l -10e-5,12.6825 c 1.5982,1.1639 2.6374,3.0494 2.6374,5.1773 0,2.128 -1.0392,4.0133 -2.6375,5.1771 l 0,6.421 c 0,6.055 3.4327,11.2921 8.437,13.945 3.285,1.7415 6.6685,3.2913 10.0033,4.9334 1.7637,0.8973 3.3208,2.142 4.5888,3.6354 1.2655,-1.5026 2.8175,-2.7415 4.5746,-3.6354 3.3348,-1.6421 6.7183,-3.1919 10.0033,-4.9334 5.0043,-2.6529 8.437,-7.89 8.437,-13.945 l 0,-6.421 c -1.5983,-1.1639 -2.6375,-3.0492 -2.6375,-5.1771 0,-2.1279 1.0393,-4.0133 2.6374,-5.1771 l -1e-4,-12.6827 z"
   id="path10"
   inkscape:connector-curvature="0"
   style="fill:#ffffff;stroke:#000000;stroke-width:0.25" />
  <path
   class="fil1 str0"
   d="m 105,175.926 c -1.4621,-1.4989 -2.999,-2.4485 -4.6727,-3.3044 -3.1271,-1.5991 -6.3411,-3.0174 -9.4475,-4.6642 -4.8365,-2.5638 -7.9055,-7.596 -7.9057,-13.0608 l 0.0039,0 0,-0.001 0,-5.9407 c 1.6677,-1.4025 2.6336,-3.4673 2.6336,-5.6568 0,-2.1718 -0.9788,-4.2763 -2.6374,-5.6626 l 1e-4,-11.5618 c 6.8982,-3.1754 14.4271,-4.8107 22.0257,-4.8107 7.5986,0 15.1275,1.6353 22.0257,4.8107 l 1e-4,11.5618 c -1.6586,1.3863 -2.6374,3.4908 -2.6374,5.6626 0,2.1895 0.9659,4.2543 2.6336,5.6568 l 0,5.9407 0,0.001 0.004,0 c -2e-4,5.4648 -3.0692,10.497 -7.9057,13.0608 -3.1064,1.6468 -6.3204,3.0651 -9.4475,4.6642 -1.6737,0.8559 -3.2106,1.8055 -4.6727,3.3044 z"
   id="path12"
   inkscape:connector-curvature="0"
   style="fill:#e5e5e5;fill-rule:nonzero;stroke:#000000;stroke-width:0.25" />
  <path
   class="fil2"
   d="m 87.3543,153.708 0,2.1639 1.4426,0 0,-2.1639 2.7886,0 0,2.1639 1.4425,0 0,-2.1639 2.7886,0 0,2.1639 1.4425,0 0,-2.1639 0.7284,0 0,-19.882 -0.896,-0.8446 1e-4,-3.0304 1.9793,-1e-4 0,2.1848 1.4798,0 0,-2.1848 1.9797,0 0,2.1848 1.4798,0 0,-2.1848 1.9797,0 0,2.1848 1.4798,0 0,-2.1848 1.9797,0 0,2.1848 1.4798,0 0,-2.1848 1.9792,1e-4 1e-4,3.0304 -0.784,0.8399 0,19.8867 0.6165,0 0,2.1639 1.4425,0 0,-2.1639 2.7886,0 0,2.1639 1.4425,0 0,-2.1639 2.7886,0 0,2.1639 1.4425,0 0,-2.1638 2.7886,0 0,2.1638 1.684,0 c -0.2571,3.3854 -1.607,6.5757 -3.9084,9.0817 -1.1404,1.2417 -2.4979,2.3011 -4.0316,3.1141 -1.727,0.9155 -3.4962,1.7645 -5.2649,2.6133 -2.2131,1.0619 -4.5539,2.0624 -6.5861,3.4546 -0.7697,0.5272 -1.5132,1.1344 -2.2379,1.8772 l -0.0894,0.0916 -0.0894,-0.0916 c -0.7247,-0.7428 -1.4682,-1.35 -2.2379,-1.8772 -2.0322,-1.3922 -4.3731,-2.3927 -6.5861,-3.4546 -1.7687,-0.8488 -3.5379,-1.6978 -5.2649,-2.6133 l -5e-4,-5e-4 -0.0069,-0.004 -2e-4,4e-4 c -1.2534,-0.6652 -2.4124,-1.51 -3.4299,-2.499 -2.6536,-2.5794 -4.2254,-6.009 -4.5024,-9.693 l 1.6839,0 0,-2.1639 2.7886,0 z"
   id="path14"
   inkscape:connector-curvature="0"
   style="fill:#000000;fill-rule:nonzero" />
  <path
   class="fil3"
   d="m 87.1043,153.958 -2.2886,0 0,2.1639 -1.6638,0 c 0.3012,3.5391 1.8949,6.8232 4.4061,9.2642 1.0016,0.9735 2.1395,1.8021 3.3733,2.457 l 0,5e-4 0.0065,0.004 1e-4,-2e-4 c 1.7356,0.92 3.496,1.7649 5.2561,2.6095 2.2245,1.0674 4.5767,2.0737 6.6193,3.4732 0.7509,0.5143 1.4777,1.1037 2.1867,1.8184 0.709,-0.7147 1.4358,-1.3041 2.1867,-1.8184 2.0426,-1.3995 4.3948,-2.4058 6.6193,-3.4732 1.7601,-0.8446 3.5205,-1.6895 5.2561,-2.6095 1.483,-0.7861 2.7984,-1.8065 3.908,-3.0012 2.2182,-2.3881 3.6023,-5.4821 3.878,-8.7238 l -1.6638,0 0,-2.1638 -2.2886,0 0,2.1638 -1.9425,0 0,-2.1639 -2.2886,0 0,2.1639 -1.9425,0 0,-2.1639 -2.2886,0 0,2.1639 -1.9425,0 0,-2.1639 -2.2886,0 0,2.1639 -1.9425,0 0,-2.1639 -2.2886,0 0,2.1639 -1.9425,0 0,-2.1639 -2.2886,0 0,2.1639 -1.9425,0 0,-2.1639 -2.2886,0 0,2.1639 -1.9425,0 0,-2.1639 -2.2886,0 0,2.1639 -1.9425,0 0,-2.1639 -2.2886,0 0,2.1639 -1.9426,0 0,-2.1639 z m 11.1322,-20.0611 0,19.8111 1.8112,0 0,2.1639 1.4425,0 0,-2.1639 2.7886,0 0,2.1639 1.4425,0 0,-2.1639 2.7886,0 0,2.1639 1.4425,0 0,-2.1639 1.9231,0 0,-19.8111 -13.639,0 z m 14.423,-1.09 0,-2.606 -1.4803,0 0,2.1848 -1.9798,0 0,-2.1848 -1.4797,0 0,2.1848 -1.9798,0 0,-2.1848 -1.4797,0 0,2.1848 -1.9798,0 0,-2.1848 -1.4797,0 0,2.1848 -1.9798,0 0,-2.1848 -1.4804,0 0,2.606 15.319,0 z m -15.128,0.25 0.6294,0.59 13.7851,0 0.5507,-0.59 -14.9652,0 z"
   id="path16"
   inkscape:connector-curvature="0"
   style="fill:#df212c;fill-rule:nonzero" />
  <path
   class="fil0"
   d="m 107.369,138.962 0,6.6989 -5.2416,0 0,-6.6989 c 0,-1.4221 1.1736,-2.5753 2.6208,-2.5753 1.4472,0 2.6208,1.1532 2.6208,2.5753 z"
   id="path18"
   inkscape:connector-curvature="0"
   style="fill:#ffffff" />
  <path
   class="fil4"
   d="m 107.016,139.008 0,6.3 -4.536,0 0,-6.3 c 0,-1.2524 1.0156,-2.268 2.268,-2.268 1.2524,0 2.268,1.0156 2.268,2.268 z"
   id="path20"
   inkscape:connector-curvature="0"
   style="fill:#000000" />
  <path
   class="fil5"
   d="m 102.429,173.673 0,-1.368 -2.3902,0 c -0.2327,-0.1196 -0.4665,-0.237 -0.7013,-0.3528 l 0.6959,0 0,-2.4702 -4.4398,0 0,0.6861 -0.3514,-0.1688 0,-0.5173 -1.0685,0 c -0.2402,-0.117 -0.48,-0.2345 -0.7197,-0.3528 l 4.1838,0 0,-2.4701 -4.4399,0 0,2.3435 -0.3514,-0.175 0,-2.1685 -3.7908,0 c -0.1546,-0.1146 -0.3071,-0.2322 -0.4571,-0.3528 l 1.8523,0 0,-2.4701 -4.2776,0 c -0.0901,-0.1163 -0.1783,-0.234 -0.2648,-0.3528 l 2.1468,0 0,-2.4702 -3.601,0 c -0.0542,-0.1168 -0.1066,-0.2345 -0.1578,-0.3528 l 1.3632,0 0,-2.47 -2.1794,0 c -0.0274,-0.1172 -0.0533,-0.2347 -0.0778,-0.3528 l 43.1941,0 c -0.0246,0.1179 -0.0507,0.2355 -0.0782,0.3528 l -2.1775,0 0,2.47 1.3597,0 c -0.0512,0.1183 -0.1041,0.2359 -0.1584,0.3528 l -3.5969,0 0,2.4702 2.1451,0 c -0.0863,0.1188 -0.1745,0.2365 -0.2644,0.3528 l -4.2763,0 0,2.4701 1.8522,0 c -0.1497,0.1204 -0.3021,0.238 -0.4569,0.3528 l -3.791,0 0,2.1683 -0.3514,0.1751 0,-2.3434 -4.4398,0 0,2.4701 4.1834,0 c -0.2398,0.1183 -0.4798,0.2358 -0.7199,0.3528 l -1.0679,0 0,0.517 -0.3514,0.169 0,-0.686 -4.4398,0 0,2.4702 0.6955,0 c -0.2348,0.1158 -0.4688,0.2332 -0.7014,0.3528 l -2.3896,0 0,1.3677 c -0.1181,0.0768 -0.2352,0.1549 -0.3514,0.2341 l 0,-1.6018 -4.4399,0 0,1.6019 c -0.1162,-0.0792 -0.2333,-0.1571 -0.3514,-0.2339 z m 3.224,1.455 -1.306,0 c -0.1361,-0.1215 -0.2728,-0.2388 -0.4103,-0.3528 l 2.127,0 c -0.1375,0.114 -0.2746,0.2313 -0.4107,0.3528 z m -5.2682,-5.646 0,2.4702 4.4399,0 0,-2.4702 -4.4399,0 z m 4.7913,0 0,2.4702 4.4397,0 0,-2.4702 -4.4397,0 z m -7.1869,-2.8229 0,2.4701 4.4398,0 0,-2.4701 -4.4398,0 z m 4.7912,0 0,2.4701 4.4399,0 0,-2.4701 -4.4399,0 z m 4.7913,0 0,2.4701 4.4397,0 0,-2.4701 -4.4397,0 z m -11.9781,-2.8229 0,2.4701 4.4398,0 0,-2.4701 -4.4398,0 z m -0.3514,2.4701 0,-2.4701 -4.4399,0 0,2.4701 4.4399,0 z m 5.1426,-2.4701 0,2.4701 4.4399,0 0,-2.4701 -4.4399,0 z m 4.7913,0 0,2.4701 4.4397,0 0,-2.4701 -4.4397,0 z m 4.7911,0 0,2.4701 4.4398,0 0,-2.4701 -4.4398,0 z m 4.7912,0 0,2.4701 4.4399,0 0,-2.4701 -4.4399,0 z m -21.5604,-2.823 0,2.4702 4.4398,0 0,-2.4702 -4.4398,0 z m -0.3514,2.4702 0,-2.4702 -4.4399,0 0,2.4702 4.4399,0 z m 5.1426,-2.4702 0,2.4702 4.4399,0 0,-2.4702 -4.4399,0 z m 4.7913,0 0,2.4702 4.4397,0 0,-2.4702 -4.4397,0 z m 4.7911,0 0,2.4702 4.4398,0 0,-2.4702 -4.4398,0 z m 4.7912,0 0,2.4702 4.4399,0 0,-2.4702 -4.4399,0 z m 4.7913,0 0,2.4702 4.4398,0 0,-2.4702 -4.4398,0 z m -26.3517,-2.8228 0,2.47 4.4398,0 0,-2.47 -4.4398,0 z m -0.3514,2.47 0,-2.47 -4.4399,0 0,2.47 4.4399,0 z m 5.1426,-2.47 0,2.47 4.4399,0 0,-2.47 -4.4399,0 z m 4.7913,0 0,2.47 4.4397,0 0,-2.47 -4.4397,0 z m 4.7911,0 0,2.47 4.4398,0 0,-2.47 -4.4398,0 z m 4.7912,0 0,2.47 4.4399,0 0,-2.47 -4.4399,0 z m 4.7913,0 0,2.47 4.4398,0 0,-2.47 -4.4398,0 z m 4.7912,0 0,2.47 4.4398,0 0,-2.47 -4.4398,0 z"
   id="path22"
   inkscape:connector-curvature="0"
   style="fill:#ffffff;fill-rule:nonzero" />
 </g>
</svg>